<svg xmlns="http://www.w3.org/2000/svg" xmlns:xlink="http://www.w3.org/1999/xlink" width="17" height="17" viewBox="0 0 17 17">
  <defs>
    <clipPath id="clip-path">
      <rect id="Rectangle_16" data-name="Rectangle 16" width="17" height="17" transform="translate(-0.437 -0.437)" fill="#190775"/>
    </clipPath>
  </defs>
  <g id="Group_23" data-name="Group 23" transform="translate(0.439 0.438)">
    <path id="Path_20" data-name="Path 20" d="M0,0V3.767H.95V.942H3.779V0Z" transform="translate(0 0)" fill="#190775"/>
    <path id="Path_21" data-name="Path 21" d="M391.236,0V.948h2.836V3.779h.943V0Z" transform="translate(-378.891 0)" fill="#190775"/>
    <path id="Path_22" data-name="Path 22" d="M394.378,391.233v2.84h-2.816v.939h3.769v-3.779Z" transform="translate(-379.206 -378.888)" fill="#190775"/>
    <path id="Path_23" data-name="Path 23" d="M274.181,269.4v.943h1.883v4.72h-4.71v-1.874h-.947v-.954l0,0h.936v-.949H270.4l0,0v-.941h2.834V269.4l0,0h.949Zm.941,1.9H272.3v2.813h2.821Z" transform="translate(-261.87 -260.904)" fill="#190775"/>
    <g id="Group_22" data-name="Group 22" transform="translate(-0.002 -0.001)">
      <g id="Group_21" data-name="Group 21" clip-path="url(#clip-path)">
        <path id="Path_24" data-name="Path 24" d="M65.02,243.62v.943h-.934v.936h1.876v-.923H66.9v.931h.944v.942H63.14v-.94h-.954l0,0v-.949l0,0h.936v-1.894h-.936l0,0v-.943h.933v-.94H61.255v-.944h4.71v.937l0,0H64.088v2.839h.936Z" transform="translate(-59.32 -232.283)" fill="#190775"/>
        <path id="Path_25" data-name="Path 25" d="M66.806,62h-.943v2.828h-4.72V60.121h4.708v.94h.954l0,0q0,.474,0,.948Zm-4.715,1.88h2.815V61.065H62.092Z" transform="translate(-59.213 -58.223)" fill="#190775"/>
        <path id="Path_26" data-name="Path 26" d="M302.579,65.8v-.943H300.7v-4.72h4.7v4.709h-1.879V65.8l0,0h-.949Zm1.88-4.715h-2.815V63.9h2.815Z" transform="translate(-291.206 -58.24)" fill="#190775"/>
        <path id="Path_27" data-name="Path 27" d="M.362,391.476h.93V394.3H4.12v.943H.362Z" transform="translate(-0.349 -379.122)" fill="#190775"/>
        <path id="Path_28" data-name="Path 28" d="M244.255,211.826h-3.784l0,0v-1.88h.939v.936h2.84l0,0v.949Z" transform="translate(-232.881 -203.324)" fill="#190775"/>
        <path id="Path_29" data-name="Path 29" d="M240.443,119.687h.936v1.877h-.932v-1.882l0,0" transform="translate(-232.854 -115.906)" fill="#190775"/>
        <path id="Path_30" data-name="Path 30" d="M390.161,239.465h1.881v.941h-1.881l0,0v-.949Z" transform="translate(-377.847 -231.904)" fill="#190775"/>
        <path id="Path_31" data-name="Path 31" d="M181.516,299.346v1.89h-.945l0,0v-1.89h.945Z" transform="translate(-174.871 -289.899)" fill="#190775"/>
        <path id="Path_32" data-name="Path 32" d="M62.163,331.175h-.936V329.29h.936l0,0v1.894Z" transform="translate(-59.293 -318.894)" fill="#190775"/>
        <path id="Path_33" data-name="Path 33" d="M240.452,61.182v-.936h.932v.932h-.937l0,0" transform="translate(-232.859 -58.344)" fill="#190775"/>
        <path id="Path_34" data-name="Path 34" d="M211.456,269.385v.945h-.945l0,0v-.949l0,0h.95l0,0" transform="translate(-203.866 -260.884)" fill="#190775"/>
        <path id="Path_35" data-name="Path 35" d="M241.818,330.23h-.936v-.941h.936l0,0v.949Z" transform="translate(-233.279 -318.893)" fill="#190775"/>
        <path id="Path_36" data-name="Path 36" d="M62.146,419.092v.936h-.932V419.1h.937l0,0" transform="translate(-59.28 -405.866)" fill="#190775"/>
        <rect id="Rectangle_13" data-name="Rectangle 13" width="0.925" height="0.926" transform="translate(11.378 11.347)" fill="#190775"/>
        <rect id="Rectangle_14" data-name="Rectangle 14" width="0.925" height="0.927" transform="translate(3.824 3.791)" fill="#190775"/>
        <rect id="Rectangle_15" data-name="Rectangle 15" width="0.931" height="0.923" transform="translate(11.377 3.789)" fill="#190775"/>
      </g>
    </g>
  </g>
</svg>
