<svg id="Group_17" data-name="Group 17" xmlns="http://www.w3.org/2000/svg" xmlns:xlink="http://www.w3.org/1999/xlink" width="15.676" height="18" viewBox="0 0 15.676 18">
  <defs>
    <clipPath id="clip-path">
      <rect id="Rectangle_6" data-name="Rectangle 6" width="15.676" height="18" fill="#190775"/>
    </clipPath>
  </defs>
  <g id="Group_5" data-name="Group 5" clip-path="url(#clip-path)">
    <path id="Path_14" data-name="Path 14" d="M12.416,18a7.279,7.279,0,0,1-.918-.278A2.914,2.914,0,0,1,9.92,14.175a.214.214,0,0,0-.113-.3q-2.268-1.392-4.524-2.8a.187.187,0,0,0-.277.033A2.832,2.832,0,0,1,2.05,11.8a2.826,2.826,0,0,1-2-2.287A2.941,2.941,0,0,1,5,6.89a.193.193,0,0,0,.291.035Q7.555,5.512,9.829,4.113a.185.185,0,0,0,.1-.263,2.945,2.945,0,1,1,3.338,1.988,2.9,2.9,0,0,1-2.614-.8l-.11-.1-4.842,3a2.991,2.991,0,0,1,0,2.138l4.839,3c.1-.09.2-.182.3-.268a2.945,2.945,0,1,1,2.311,5.17.588.588,0,0,0-.1.032Zm.316-1.078a1.869,1.869,0,1,0-1.874-1.854,1.868,1.868,0,0,0,1.874,1.854M10.858,2.944a1.869,1.869,0,1,0,1.863-1.865,1.869,1.869,0,0,0-1.863,1.865M1.082,9A1.87,1.87,0,1,0,2.938,7.132,1.865,1.865,0,0,0,1.082,9" transform="translate(0 0)" fill="#190775"/>
  </g>
</svg>
